<svg width="24" height="24" viewBox="0 0 24 24" fill="none" xmlns="http://www.w3.org/2000/svg">
<path d="M17.6673 6.35361C17.8625 6.15835 18.1791 6.15835 18.3744 6.35361C18.5696 6.54887 18.5696 6.86546 18.3744 7.06072L7.06066 18.3744C6.8654 18.5697 6.54882 18.5697 6.35355 18.3744C6.15829 18.1792 6.15829 17.8626 6.35355 17.6673L17.6673 6.35361Z" fill="black"/>
<path d="M18.3743 17.6673C18.5696 17.8625 18.5696 18.1791 18.3743 18.3744C18.179 18.5696 17.8624 18.5696 17.6672 18.3744L6.35348 7.06066C6.15822 6.8654 6.15822 6.54882 6.35348 6.35355C6.54874 6.15829 6.86532 6.15829 7.06058 6.35355L18.3743 17.6673Z" fill="black"/>
</svg>
